<svg width="460" height="450" viewBox="0 0 460 450" fill="none" xmlns="http://www.w3.org/2000/svg">
<rect width="460" height="450" rx="20" fill="white"/>
<path d="M151 207V135C151 132.878 151.843 130.843 153.343 129.343C154.843 127.843 156.878 127 159 127H255L311 183V207" stroke="#0A0A0A" stroke-width="16" stroke-linecap="round" stroke-linejoin="round"/>
<path d="M255 127V183H311" stroke="#0A0A0A" stroke-width="16" stroke-linecap="round" stroke-linejoin="round"/>
<path d="M51.96 299.152C45.432 299.152 39.64 297.68 34.584 294.736C29.528 291.728 25.56 287.632 22.68 282.448C19.8 277.2 18.36 271.184 18.36 264.4C18.36 257.616 19.8 251.632 22.68 246.448C25.56 241.2 29.496 237.104 34.488 234.16C39.544 231.152 45.336 229.648 51.864 229.648C56.472 229.648 60.76 230.48 64.728 232.144C68.696 233.744 72.152 236.016 75.096 238.96C78.104 241.84 80.408 245.168 82.008 248.944L69.816 253.456C68.728 251.088 67.288 249.04 65.496 247.312C63.704 245.52 61.656 244.144 59.352 243.184C57.048 242.16 54.552 241.648 51.864 241.648C47.96 241.648 44.472 242.64 41.4 244.624C38.392 246.544 36.024 249.2 34.296 252.592C32.632 255.984 31.8 259.92 31.8 264.4C31.8 268.88 32.664 272.848 34.392 276.304C36.12 279.696 38.52 282.384 41.592 284.368C44.664 286.288 48.184 287.248 52.152 287.248C54.904 287.248 57.4 286.736 59.64 285.712C61.944 284.624 63.96 283.152 65.688 281.296C67.48 279.44 68.92 277.296 70.008 274.864L82.2 279.28C80.6 283.184 78.296 286.64 75.288 289.648C72.344 292.656 68.888 294.992 64.92 296.656C60.952 298.32 56.632 299.152 51.96 299.152ZM114.419 299.152C111.027 299.152 107.859 298.736 104.915 297.904C101.971 297.072 99.3465 295.92 97.0425 294.448C94.7385 292.912 92.8185 291.216 91.2825 289.36C89.8105 287.504 88.8505 285.552 88.4025 283.504L101.267 279.664C102.099 281.84 103.571 283.728 105.683 285.328C107.795 286.864 110.451 287.664 113.651 287.728C117.043 287.792 119.795 287.056 121.907 285.52C124.083 283.984 125.171 282 125.171 279.568C125.171 277.456 124.307 275.696 122.579 274.288C120.915 272.816 118.611 271.696 115.667 270.928L106.931 268.624C103.667 267.792 100.787 266.544 98.2905 264.88C95.7945 263.152 93.8425 261.04 92.4345 258.544C91.0265 256.048 90.3225 253.136 90.3225 249.808C90.3225 243.472 92.4025 238.544 96.5625 235.024C100.787 231.44 106.739 229.648 114.419 229.648C118.707 229.648 122.451 230.288 125.651 231.568C128.915 232.784 131.635 234.544 133.811 236.848C135.987 239.152 137.651 241.872 138.802 245.008L126.035 248.944C125.267 246.768 123.859 244.912 121.811 243.376C119.763 241.84 117.171 241.072 114.035 241.072C110.835 241.072 108.307 241.808 106.451 243.28C104.659 244.752 103.763 246.832 103.763 249.52C103.763 251.632 104.467 253.296 105.875 254.512C107.347 255.728 109.331 256.656 111.827 257.296L120.659 259.504C126.419 260.912 130.899 263.44 134.099 267.088C137.299 270.736 138.899 274.8 138.899 279.28C138.899 283.248 137.939 286.736 136.019 289.744C134.099 292.688 131.315 294.992 127.667 296.656C124.019 298.32 119.603 299.152 114.419 299.152ZM171.867 298L197.307 230.8H211.419L184.731 298H171.867ZM170.427 298L143.643 230.8H157.755L183.291 298H170.427ZM242.327 298V230.8H285.431V242.8H255.479V258.928H280.439V270.928H255.479V298H242.327ZM293.66 298V230.8H306.332V298H293.66ZM339.845 299.152C334.981 299.152 330.629 298.096 326.789 295.984C323.013 293.808 320.037 290.832 317.861 287.056C315.749 283.28 314.693 278.928 314.693 274C314.693 269.072 315.749 264.72 317.861 260.944C319.973 257.168 322.917 254.224 326.693 252.112C330.469 249.936 334.789 248.848 339.653 248.848C344.581 248.848 348.933 249.936 352.709 252.112C356.485 254.224 359.429 257.168 361.541 260.944C363.653 264.72 364.708 269.072 364.708 274C364.708 278.928 363.653 283.28 361.541 287.056C359.429 290.832 356.485 293.808 352.709 295.984C348.997 298.096 344.709 299.152 339.845 299.152ZM339.845 287.44C342.213 287.44 344.293 286.864 346.085 285.712C347.877 284.56 349.253 282.992 350.213 281.008C351.237 278.96 351.749 276.624 351.749 274C351.749 271.376 351.237 269.072 350.213 267.088C349.189 265.04 347.749 263.44 345.893 262.288C344.101 261.136 342.021 260.56 339.653 260.56C337.349 260.56 335.269 261.136 333.413 262.288C331.621 263.44 330.213 265.04 329.189 267.088C328.165 269.072 327.653 271.376 327.653 274C327.653 276.624 328.165 278.96 329.189 281.008C330.213 282.992 331.653 284.56 333.509 285.712C335.365 286.864 337.477 287.44 339.845 287.44ZM415.931 298L431.867 250H444.731L428.411 298H415.931ZM384.059 298L399.419 250H410.459L395.291 298H384.059ZM382.811 298L366.491 250H379.355L394.619 298H382.811ZM415.931 298L400.955 250H411.899L427.163 298H415.931Z" fill="#0A0A0A"/>
</svg>
