<svg width="431" height="203" viewBox="0 0 431 203" fill="none" xmlns="http://www.w3.org/2000/svg">
<path d="M136 88V16C136 13.8783 136.843 11.8434 138.343 10.3431C139.843 8.84286 141.878 8 144 8H240L296 64V88" stroke="#0A0A0A" stroke-width="16" stroke-linecap="round" stroke-linejoin="round"/>
<path d="M240 8V64H296" stroke="#0A0A0A" stroke-width="16" stroke-linecap="round" stroke-linejoin="round"/>
<path d="M36.96 180.152C30.432 180.152 24.64 178.68 19.584 175.736C14.528 172.728 10.56 168.632 7.68 163.448C4.8 158.2 3.36 152.184 3.36 145.4C3.36 138.616 4.8 132.632 7.68 127.448C10.56 122.2 14.496 118.104 19.488 115.16C24.544 112.152 30.336 110.648 36.864 110.648C41.472 110.648 45.76 111.48 49.728 113.144C53.696 114.744 57.152 117.016 60.096 119.96C63.104 122.84 65.408 126.168 67.008 129.944L54.816 134.456C53.728 132.088 52.288 130.04 50.496 128.312C48.704 126.52 46.656 125.144 44.352 124.184C42.048 123.16 39.552 122.648 36.864 122.648C32.96 122.648 29.472 123.64 26.4 125.624C23.392 127.544 21.024 130.2 19.296 133.592C17.632 136.984 16.8 140.92 16.8 145.4C16.8 149.88 17.664 153.848 19.392 157.304C21.12 160.696 23.52 163.384 26.592 165.368C29.664 167.288 33.184 168.248 37.152 168.248C39.904 168.248 42.4 167.736 44.64 166.712C46.944 165.624 48.96 164.152 50.688 162.296C52.48 160.44 53.92 158.296 55.008 155.864L67.2 160.28C65.6 164.184 63.296 167.64 60.288 170.648C57.344 173.656 53.888 175.992 49.92 177.656C45.952 179.32 41.632 180.152 36.96 180.152ZM99.4185 180.152C96.0265 180.152 92.8585 179.736 89.9145 178.904C86.9705 178.072 84.3465 176.92 82.0425 175.448C79.7385 173.912 77.8185 172.216 76.2825 170.36C74.8105 168.504 73.8505 166.552 73.4025 164.504L86.2665 160.664C87.0985 162.84 88.5705 164.728 90.6825 166.328C92.7945 167.864 95.4505 168.664 98.6505 168.728C102.043 168.792 104.795 168.056 106.907 166.52C109.083 164.984 110.171 163 110.171 160.568C110.171 158.456 109.307 156.696 107.579 155.288C105.915 153.816 103.611 152.696 100.667 151.928L91.9305 149.624C88.6665 148.792 85.7865 147.544 83.2905 145.88C80.7945 144.152 78.8425 142.04 77.4345 139.544C76.0265 137.048 75.3225 134.136 75.3225 130.808C75.3225 124.472 77.4025 119.544 81.5625 116.024C85.7865 112.44 91.7385 110.648 99.4185 110.648C103.707 110.648 107.451 111.288 110.651 112.568C113.915 113.784 116.635 115.544 118.811 117.848C120.987 120.152 122.651 122.872 123.802 126.008L111.035 129.944C110.267 127.768 108.859 125.912 106.811 124.376C104.763 122.84 102.171 122.072 99.0345 122.072C95.8345 122.072 93.3065 122.808 91.4505 124.28C89.6585 125.752 88.7625 127.832 88.7625 130.52C88.7625 132.632 89.4665 134.296 90.8745 135.512C92.3465 136.728 94.3305 137.656 96.8265 138.296L105.659 140.504C111.419 141.912 115.899 144.44 119.099 148.088C122.299 151.736 123.899 155.8 123.899 160.28C123.899 164.248 122.939 167.736 121.019 170.744C119.099 173.688 116.315 175.992 112.667 177.656C109.019 179.32 104.603 180.152 99.4185 180.152ZM156.867 179L182.307 111.8H196.419L169.731 179H156.867ZM155.427 179L128.643 111.8H142.755L168.291 179H155.427ZM227.327 179V111.8H270.431V123.8H240.479V139.928H265.439V151.928H240.479V179H227.327ZM278.66 179V111.8H291.332V179H278.66ZM324.845 180.152C319.981 180.152 315.629 179.096 311.789 176.984C308.013 174.808 305.037 171.832 302.861 168.056C300.749 164.28 299.693 159.928 299.693 155C299.693 150.072 300.749 145.72 302.861 141.944C304.973 138.168 307.917 135.224 311.693 133.112C315.469 130.936 319.789 129.848 324.653 129.848C329.581 129.848 333.933 130.936 337.709 133.112C341.485 135.224 344.429 138.168 346.541 141.944C348.653 145.72 349.708 150.072 349.708 155C349.708 159.928 348.653 164.28 346.541 168.056C344.429 171.832 341.485 174.808 337.709 176.984C333.997 179.096 329.709 180.152 324.845 180.152ZM324.845 168.44C327.213 168.44 329.293 167.864 331.085 166.712C332.877 165.56 334.253 163.992 335.213 162.008C336.237 159.96 336.749 157.624 336.749 155C336.749 152.376 336.237 150.072 335.213 148.088C334.189 146.04 332.749 144.44 330.893 143.288C329.101 142.136 327.021 141.56 324.653 141.56C322.349 141.56 320.269 142.136 318.413 143.288C316.621 144.44 315.213 146.04 314.189 148.088C313.165 150.072 312.653 152.376 312.653 155C312.653 157.624 313.165 159.96 314.189 162.008C315.213 163.992 316.653 165.56 318.509 166.712C320.365 167.864 322.477 168.44 324.845 168.44ZM400.931 179L416.867 131H429.731L413.411 179H400.931ZM369.059 179L384.419 131H395.459L380.291 179H369.059ZM367.811 179L351.491 131H364.355L379.619 179H367.811ZM400.931 179L385.955 131H396.899L412.163 179H400.931Z" fill="#0A0A0A"/>
</svg>
