<svg width="432" height="203" viewBox="0 0 432 203" fill="none" xmlns="http://www.w3.org/2000/svg">
<path d="M136 88V16C136 13.8783 136.843 11.8434 138.343 10.3431C139.843 8.84286 141.878 8 144 8H240L296 64V88" stroke="white" stroke-width="16" stroke-linecap="round" stroke-linejoin="round"/>
<path d="M240 8V64H296" stroke="white" stroke-width="16" stroke-linecap="round" stroke-linejoin="round"/>
<mask id="path-3-outside-1_6_2" maskUnits="userSpaceOnUse" x="2" y="109" width="430" height="73" fill="black">
<rect fill="white" x="2" y="109" width="430" height="73"/>
<path d="M36.96 180.152C30.432 180.152 24.64 178.68 19.584 175.736C14.528 172.728 10.56 168.632 7.68 163.448C4.8 158.2 3.36 152.184 3.36 145.4C3.36 138.616 4.8 132.632 7.68 127.448C10.56 122.2 14.496 118.104 19.488 115.16C24.544 112.152 30.336 110.648 36.864 110.648C41.472 110.648 45.76 111.48 49.728 113.144C53.696 114.744 57.152 117.016 60.096 119.96C63.104 122.84 65.408 126.168 67.008 129.944L54.816 134.456C53.728 132.088 52.288 130.04 50.496 128.312C48.704 126.52 46.656 125.144 44.352 124.184C42.048 123.16 39.552 122.648 36.864 122.648C32.96 122.648 29.472 123.64 26.4 125.624C23.392 127.544 21.024 130.2 19.296 133.592C17.632 136.984 16.8 140.92 16.8 145.4C16.8 149.88 17.664 153.848 19.392 157.304C21.12 160.696 23.52 163.384 26.592 165.368C29.664 167.288 33.184 168.248 37.152 168.248C39.904 168.248 42.4 167.736 44.64 166.712C46.944 165.624 48.96 164.152 50.688 162.296C52.48 160.44 53.92 158.296 55.008 155.864L67.2 160.28C65.6 164.184 63.296 167.64 60.288 170.648C57.344 173.656 53.888 175.992 49.92 177.656C45.952 179.32 41.632 180.152 36.96 180.152ZM99.4185 180.152C96.0265 180.152 92.8585 179.736 89.9145 178.904C86.9705 178.072 84.3465 176.92 82.0425 175.448C79.7385 173.912 77.8185 172.216 76.2825 170.36C74.8105 168.504 73.8505 166.552 73.4025 164.504L86.2665 160.664C87.0985 162.84 88.5705 164.728 90.6825 166.328C92.7945 167.864 95.4505 168.664 98.6505 168.728C102.043 168.792 104.795 168.056 106.907 166.52C109.083 164.984 110.171 163 110.171 160.568C110.171 158.456 109.307 156.696 107.579 155.288C105.915 153.816 103.611 152.696 100.667 151.928L91.9305 149.624C88.6665 148.792 85.7865 147.544 83.2905 145.88C80.7945 144.152 78.8425 142.04 77.4345 139.544C76.0265 137.048 75.3225 134.136 75.3225 130.808C75.3225 124.472 77.4025 119.544 81.5625 116.024C85.7865 112.44 91.7385 110.648 99.4185 110.648C103.707 110.648 107.451 111.288 110.651 112.568C113.915 113.784 116.635 115.544 118.811 117.848C120.987 120.152 122.651 122.872 123.802 126.008L111.035 129.944C110.267 127.768 108.859 125.912 106.811 124.376C104.763 122.84 102.171 122.072 99.0345 122.072C95.8345 122.072 93.3065 122.808 91.4505 124.28C89.6585 125.752 88.7625 127.832 88.7625 130.52C88.7625 132.632 89.4665 134.296 90.8745 135.512C92.3465 136.728 94.3305 137.656 96.8265 138.296L105.659 140.504C111.419 141.912 115.899 144.44 119.099 148.088C122.299 151.736 123.899 155.8 123.899 160.28C123.899 164.248 122.939 167.736 121.019 170.744C119.099 173.688 116.315 175.992 112.667 177.656C109.019 179.32 104.603 180.152 99.4185 180.152ZM156.867 179L182.307 111.8H196.419L169.731 179H156.867ZM155.427 179L128.643 111.8H142.755L168.291 179H155.427ZM227.327 179V111.8H270.431V123.8H240.479V139.928H265.439V151.928H240.479V179H227.327ZM278.66 179V111.8H291.332V179H278.66ZM324.845 180.152C319.981 180.152 315.629 179.096 311.789 176.984C308.013 174.808 305.037 171.832 302.861 168.056C300.749 164.28 299.693 159.928 299.693 155C299.693 150.072 300.749 145.72 302.861 141.944C304.973 138.168 307.917 135.224 311.693 133.112C315.469 130.936 319.789 129.848 324.653 129.848C329.581 129.848 333.933 130.936 337.709 133.112C341.485 135.224 344.429 138.168 346.541 141.944C348.653 145.72 349.708 150.072 349.708 155C349.708 159.928 348.653 164.28 346.541 168.056C344.429 171.832 341.485 174.808 337.709 176.984C333.997 179.096 329.709 180.152 324.845 180.152ZM324.845 168.44C327.213 168.44 329.293 167.864 331.085 166.712C332.877 165.56 334.253 163.992 335.213 162.008C336.237 159.96 336.749 157.624 336.749 155C336.749 152.376 336.237 150.072 335.213 148.088C334.189 146.04 332.749 144.44 330.893 143.288C329.101 142.136 327.021 141.56 324.653 141.56C322.349 141.56 320.269 142.136 318.413 143.288C316.621 144.44 315.213 146.04 314.189 148.088C313.165 150.072 312.653 152.376 312.653 155C312.653 157.624 313.165 159.96 314.189 162.008C315.213 163.992 316.653 165.56 318.509 166.712C320.365 167.864 322.477 168.44 324.845 168.44ZM400.931 179L416.867 131H429.731L413.411 179H400.931ZM369.059 179L384.419 131H395.459L380.291 179H369.059ZM367.811 179L351.491 131H364.355L379.619 179H367.811ZM400.931 179L385.955 131H396.899L412.163 179H400.931Z"/>
</mask>
<path d="M36.96 180.152C30.432 180.152 24.64 178.68 19.584 175.736C14.528 172.728 10.56 168.632 7.68 163.448C4.8 158.2 3.36 152.184 3.36 145.4C3.36 138.616 4.8 132.632 7.68 127.448C10.56 122.2 14.496 118.104 19.488 115.16C24.544 112.152 30.336 110.648 36.864 110.648C41.472 110.648 45.76 111.48 49.728 113.144C53.696 114.744 57.152 117.016 60.096 119.96C63.104 122.84 65.408 126.168 67.008 129.944L54.816 134.456C53.728 132.088 52.288 130.04 50.496 128.312C48.704 126.52 46.656 125.144 44.352 124.184C42.048 123.16 39.552 122.648 36.864 122.648C32.96 122.648 29.472 123.64 26.4 125.624C23.392 127.544 21.024 130.2 19.296 133.592C17.632 136.984 16.8 140.92 16.8 145.4C16.8 149.88 17.664 153.848 19.392 157.304C21.12 160.696 23.52 163.384 26.592 165.368C29.664 167.288 33.184 168.248 37.152 168.248C39.904 168.248 42.4 167.736 44.64 166.712C46.944 165.624 48.96 164.152 50.688 162.296C52.48 160.44 53.92 158.296 55.008 155.864L67.2 160.28C65.6 164.184 63.296 167.64 60.288 170.648C57.344 173.656 53.888 175.992 49.92 177.656C45.952 179.32 41.632 180.152 36.96 180.152ZM99.4185 180.152C96.0265 180.152 92.8585 179.736 89.9145 178.904C86.9705 178.072 84.3465 176.92 82.0425 175.448C79.7385 173.912 77.8185 172.216 76.2825 170.36C74.8105 168.504 73.8505 166.552 73.4025 164.504L86.2665 160.664C87.0985 162.84 88.5705 164.728 90.6825 166.328C92.7945 167.864 95.4505 168.664 98.6505 168.728C102.043 168.792 104.795 168.056 106.907 166.52C109.083 164.984 110.171 163 110.171 160.568C110.171 158.456 109.307 156.696 107.579 155.288C105.915 153.816 103.611 152.696 100.667 151.928L91.9305 149.624C88.6665 148.792 85.7865 147.544 83.2905 145.88C80.7945 144.152 78.8425 142.04 77.4345 139.544C76.0265 137.048 75.3225 134.136 75.3225 130.808C75.3225 124.472 77.4025 119.544 81.5625 116.024C85.7865 112.44 91.7385 110.648 99.4185 110.648C103.707 110.648 107.451 111.288 110.651 112.568C113.915 113.784 116.635 115.544 118.811 117.848C120.987 120.152 122.651 122.872 123.802 126.008L111.035 129.944C110.267 127.768 108.859 125.912 106.811 124.376C104.763 122.84 102.171 122.072 99.0345 122.072C95.8345 122.072 93.3065 122.808 91.4505 124.28C89.6585 125.752 88.7625 127.832 88.7625 130.52C88.7625 132.632 89.4665 134.296 90.8745 135.512C92.3465 136.728 94.3305 137.656 96.8265 138.296L105.659 140.504C111.419 141.912 115.899 144.44 119.099 148.088C122.299 151.736 123.899 155.8 123.899 160.28C123.899 164.248 122.939 167.736 121.019 170.744C119.099 173.688 116.315 175.992 112.667 177.656C109.019 179.32 104.603 180.152 99.4185 180.152ZM156.867 179L182.307 111.8H196.419L169.731 179H156.867ZM155.427 179L128.643 111.8H142.755L168.291 179H155.427ZM227.327 179V111.8H270.431V123.8H240.479V139.928H265.439V151.928H240.479V179H227.327ZM278.66 179V111.8H291.332V179H278.66ZM324.845 180.152C319.981 180.152 315.629 179.096 311.789 176.984C308.013 174.808 305.037 171.832 302.861 168.056C300.749 164.28 299.693 159.928 299.693 155C299.693 150.072 300.749 145.72 302.861 141.944C304.973 138.168 307.917 135.224 311.693 133.112C315.469 130.936 319.789 129.848 324.653 129.848C329.581 129.848 333.933 130.936 337.709 133.112C341.485 135.224 344.429 138.168 346.541 141.944C348.653 145.72 349.708 150.072 349.708 155C349.708 159.928 348.653 164.28 346.541 168.056C344.429 171.832 341.485 174.808 337.709 176.984C333.997 179.096 329.709 180.152 324.845 180.152ZM324.845 168.44C327.213 168.44 329.293 167.864 331.085 166.712C332.877 165.56 334.253 163.992 335.213 162.008C336.237 159.96 336.749 157.624 336.749 155C336.749 152.376 336.237 150.072 335.213 148.088C334.189 146.04 332.749 144.44 330.893 143.288C329.101 142.136 327.021 141.56 324.653 141.56C322.349 141.56 320.269 142.136 318.413 143.288C316.621 144.44 315.213 146.04 314.189 148.088C313.165 150.072 312.653 152.376 312.653 155C312.653 157.624 313.165 159.96 314.189 162.008C315.213 163.992 316.653 165.56 318.509 166.712C320.365 167.864 322.477 168.44 324.845 168.44ZM400.931 179L416.867 131H429.731L413.411 179H400.931ZM369.059 179L384.419 131H395.459L380.291 179H369.059ZM367.811 179L351.491 131H364.355L379.619 179H367.811ZM400.931 179L385.955 131H396.899L412.163 179H400.931Z" fill="white"/>
<path d="M19.584 175.736L19.0727 176.595L19.0808 176.6L19.584 175.736ZM7.68 163.448L6.80332 163.929L6.80584 163.934L7.68 163.448ZM7.68 127.448L8.55417 127.934L8.55667 127.929L7.68 127.448ZM19.488 115.16L19.996 116.021L19.9993 116.019L19.488 115.16ZM49.728 113.144L49.3412 114.066L49.354 114.071L49.728 113.144ZM60.096 119.96L59.3889 120.667L59.3966 120.675L59.4044 120.682L60.096 119.96ZM67.008 129.944L67.3551 130.882L68.3374 130.518L67.9288 129.554L67.008 129.944ZM54.816 134.456L53.9073 134.873L54.2942 135.715L55.1631 135.394L54.816 134.456ZM50.496 128.312L49.7889 129.019L49.7953 129.026L49.8019 129.032L50.496 128.312ZM44.352 124.184L43.9459 125.098L43.9566 125.103L43.9674 125.107L44.352 124.184ZM26.4 125.624L26.938 126.467L26.9425 126.464L26.4 125.624ZM19.296 133.592L18.405 133.138L18.4015 133.145L18.3982 133.152L19.296 133.592ZM19.392 157.304L18.4975 157.751L18.501 157.758L19.392 157.304ZM26.592 165.368L26.0495 166.208L26.0557 166.212L26.062 166.216L26.592 165.368ZM44.64 166.712L45.0558 167.622L45.067 167.616L44.64 166.712ZM50.688 162.296L49.9686 161.601L49.9623 161.608L49.9561 161.615L50.688 162.296ZM55.008 155.864L55.3486 154.924L54.4747 154.607L54.0952 155.456L55.008 155.864ZM67.2 160.28L68.1253 160.659L68.5206 159.695L67.5406 159.34L67.2 160.28ZM60.288 170.648L59.5809 169.941L59.5733 169.949L60.288 170.648ZM49.92 177.656L50.3067 178.578L50.3067 178.578L49.92 177.656ZM36.96 179.152C30.5878 179.152 24.9733 177.717 20.0872 174.872L19.0808 176.6C24.3067 179.643 30.2762 181.152 36.96 181.152V179.152ZM20.0953 174.877C15.1924 171.96 11.3491 167.993 8.55416 162.962L6.80584 163.934C9.77093 169.271 13.8636 173.496 19.0727 176.595L20.0953 174.877ZM8.55667 162.967C5.76785 157.885 4.36 152.039 4.36 145.4H2.36C2.36 152.329 3.83215 158.515 6.80333 163.929L8.55667 162.967ZM4.36 145.4C4.36 138.761 5.76794 132.949 8.55416 127.934L6.80584 126.962C3.83206 132.315 2.36 138.471 2.36 145.4H4.36ZM8.55667 127.929C11.3532 122.833 15.1641 118.871 19.996 116.021L18.98 114.299C13.8279 117.337 9.76683 121.567 6.80333 126.967L8.55667 127.929ZM19.9993 116.019C24.8841 113.113 30.4957 111.648 36.864 111.648V109.648C30.1763 109.648 24.2039 111.191 18.9767 114.301L19.9993 116.019ZM36.864 111.648C41.3487 111.648 45.5042 112.457 49.3413 114.066L50.1147 112.222C46.0158 110.503 41.5953 109.648 36.864 109.648V111.648ZM49.354 114.071C53.2008 115.623 56.5427 117.821 59.3889 120.667L60.8031 119.253C57.7614 116.211 54.1912 113.865 50.102 112.217L49.354 114.071ZM59.4044 120.682C62.3158 123.47 64.5411 126.685 66.0872 130.334L67.9288 129.554C66.2749 125.651 63.8922 122.21 60.7876 119.238L59.4044 120.682ZM66.6609 129.006L54.4689 133.518L55.1631 135.394L67.3551 130.882L66.6609 129.006ZM55.7247 134.038C54.5871 131.563 53.076 129.411 51.1901 127.592L49.8019 129.032C51.5 130.669 52.8689 132.613 53.9073 134.873L55.7247 134.038ZM51.2031 127.605C49.3202 125.722 47.1631 124.272 44.7366 123.261L43.9674 125.107C46.1489 126.016 48.0878 127.318 49.7889 129.019L51.2031 127.605ZM44.7581 123.27C42.318 122.186 39.6825 121.648 36.864 121.648V123.648C39.4215 123.648 41.778 124.134 43.9459 125.098L44.7581 123.27ZM36.864 121.648C32.7811 121.648 29.1022 122.688 25.8575 124.784L26.9425 126.464C29.8418 124.592 33.1389 123.648 36.864 123.648V121.648ZM25.862 124.781C22.6937 126.803 20.2083 129.598 18.405 133.138L20.187 134.046C21.8397 130.802 24.0903 128.285 26.938 126.467L25.862 124.781ZM18.3982 133.152C16.6556 136.704 15.8 140.795 15.8 145.4H17.8C17.8 141.045 18.6084 137.264 20.1938 134.032L18.3982 133.152ZM15.8 145.4C15.8 150.01 16.6899 154.136 18.4976 157.751L20.2864 156.857C18.6381 153.56 17.8 149.75 17.8 145.4H15.8ZM18.501 157.758C20.3056 161.3 22.8231 164.124 26.0495 166.208L27.1345 164.528C24.2169 162.644 21.9344 160.092 20.283 156.85L18.501 157.758ZM26.062 166.216C29.3079 168.245 33.0151 169.248 37.152 169.248V167.248C33.3529 167.248 30.0201 166.331 27.122 164.52L26.062 166.216ZM37.152 169.248C40.0306 169.248 42.6707 168.712 45.0558 167.621L44.2242 165.803C42.1293 166.76 39.7774 167.248 37.152 167.248V169.248ZM45.067 167.616C47.4853 166.474 49.6049 164.927 51.4199 162.977L49.9561 161.615C48.3151 163.377 46.4027 164.774 44.213 165.808L45.067 167.616ZM51.4074 162.991C53.2826 161.048 54.787 158.807 55.9208 156.272L54.0952 155.456C53.053 157.785 51.6774 159.832 49.9686 161.601L51.4074 162.991ZM54.6674 156.804L66.8595 161.22L67.5406 159.34L55.3486 154.924L54.6674 156.804ZM66.2747 159.901C64.7254 163.681 62.4959 167.026 59.5809 169.941L60.9951 171.355C64.0961 168.254 66.4746 164.687 68.1253 160.659L66.2747 159.901ZM59.5733 169.949C56.7248 172.859 53.381 175.12 49.5333 176.734L50.3067 178.578C54.395 176.864 57.9632 174.453 61.0027 171.347L59.5733 169.949ZM49.5333 176.734C45.6979 178.342 41.5107 179.152 36.96 179.152V181.152C41.7533 181.152 46.2061 180.298 50.3067 178.578L49.5333 176.734ZM89.9145 178.904L89.6425 179.866L89.9145 178.904ZM82.0425 175.448L81.4878 176.28L81.4959 176.285L81.5041 176.291L82.0425 175.448ZM76.2825 170.36L75.499 170.981L75.5055 170.99L75.5121 170.998L76.2825 170.36ZM73.4025 164.504L73.1165 163.546L72.2273 163.811L72.4256 164.718L73.4025 164.504ZM86.2665 160.664L87.2006 160.307L86.8693 159.44L85.9805 159.706L86.2665 160.664ZM90.6825 166.328L90.0786 167.125L90.0864 167.131L90.0943 167.137L90.6825 166.328ZM98.6505 168.728L98.6305 169.728L98.6316 169.728L98.6505 168.728ZM106.907 166.52L106.33 165.703L106.318 165.711L106.907 166.52ZM107.579 155.288L106.916 156.037L106.931 156.05L106.947 156.063L107.579 155.288ZM100.667 151.928L100.411 152.895L100.414 152.896L100.667 151.928ZM91.9305 149.624L92.1855 148.657L92.1775 148.655L91.9305 149.624ZM83.2905 145.88L82.7213 146.702L82.7285 146.707L82.7358 146.712L83.2905 145.88ZM81.5625 116.024L82.2084 116.787L82.2095 116.787L81.5625 116.024ZM110.651 112.568L110.279 113.496L110.29 113.501L110.301 113.505L110.651 112.568ZM118.811 117.848L118.083 118.535L118.083 118.535L118.811 117.848ZM123.802 126.008L124.097 126.964L125.105 126.653L124.741 125.663L123.802 126.008ZM111.035 129.944L110.092 130.277L110.411 131.183L111.329 130.9L111.035 129.944ZM106.811 124.376L106.211 125.176L106.211 125.176L106.811 124.376ZM91.4505 124.28L90.8291 123.496L90.8224 123.502L90.8158 123.507L91.4505 124.28ZM90.8745 135.512L90.2209 136.269L90.2292 136.276L90.2376 136.283L90.8745 135.512ZM96.8265 138.296L96.5781 139.265L96.584 139.266L96.8265 138.296ZM105.659 140.504L105.416 141.474L105.421 141.475L105.659 140.504ZM119.099 148.088L119.85 147.429L119.85 147.429L119.099 148.088ZM121.019 170.744L121.856 171.29L121.861 171.282L121.019 170.744ZM112.667 177.656L113.082 178.566L113.082 178.566L112.667 177.656ZM99.4185 179.152C96.1086 179.152 93.033 178.746 90.1865 177.942L89.6425 179.866C92.6841 180.726 95.9444 181.152 99.4185 181.152V179.152ZM90.1865 177.942C87.3256 177.133 84.7933 176.019 82.5809 174.605L81.5041 176.291C83.8997 177.821 86.6154 179.011 89.6425 179.866L90.1865 177.942ZM82.5972 174.616C80.3623 173.126 78.5184 171.493 77.0529 169.722L75.5121 170.998C77.1186 172.939 79.1147 174.698 81.4878 176.28L82.5972 174.616ZM77.066 169.739C75.6763 167.986 74.7908 166.171 74.3794 164.29L72.4256 164.718C72.9102 166.933 73.9447 169.022 75.499 170.981L77.066 169.739ZM73.6885 165.462L86.5525 161.622L85.9805 159.706L73.1165 163.546L73.6885 165.462ZM85.3324 161.021C86.24 163.395 87.8386 165.428 90.0786 167.125L91.2864 165.531C89.3024 164.028 87.957 162.285 87.2006 160.307L85.3324 161.021ZM90.0943 167.137C92.4059 168.818 95.2728 169.661 98.6305 169.728L98.6705 167.728C95.6282 167.667 93.1831 166.91 91.2707 165.519L90.0943 167.137ZM98.6316 169.728C102.176 169.795 105.16 169.027 107.495 167.329L106.318 165.711C104.429 167.085 101.909 167.789 98.6694 167.728L98.6316 169.728ZM107.483 167.337C109.895 165.634 111.171 163.359 111.171 160.568H109.171C109.171 162.641 108.27 164.334 106.33 165.703L107.483 167.337ZM111.171 160.568C111.171 158.137 110.156 156.099 108.21 154.513L106.947 156.063C108.457 157.293 109.171 158.775 109.171 160.568H111.171ZM108.241 154.539C106.424 152.932 103.962 151.754 100.919 150.96L100.414 152.896C103.259 153.638 105.405 154.7 106.916 156.037L108.241 154.539ZM100.922 150.961L92.1855 148.657L91.6755 150.591L100.411 152.895L100.922 150.961ZM92.1775 148.655C89.0097 147.848 86.2363 146.642 83.8452 145.048L82.7358 146.712C85.3367 148.446 88.3233 149.736 91.6835 150.593L92.1775 148.655ZM83.8597 145.058C81.4805 143.411 79.6348 141.409 78.3055 139.053L76.5635 140.035C78.0502 142.671 80.1085 144.893 82.7213 146.702L83.8597 145.058ZM78.3055 139.053C76.9948 136.729 76.3225 133.992 76.3225 130.808H74.3225C74.3225 134.28 75.0582 137.367 76.5635 140.035L78.3055 139.053ZM76.3225 130.808C76.3225 124.713 78.3106 120.086 82.2084 116.787L80.9166 115.261C76.4944 119.002 74.3225 124.231 74.3225 130.808H76.3225ZM82.2095 116.787C86.1937 113.406 91.8844 111.648 99.4185 111.648V109.648C91.5926 109.648 85.3793 111.474 80.9155 115.261L82.2095 116.787ZM99.4185 111.648C103.609 111.648 107.222 112.274 110.279 113.496L111.022 111.64C107.679 110.302 103.804 109.648 99.4185 109.648V111.648ZM110.301 113.505C113.436 114.673 116.023 116.353 118.083 118.535L119.538 117.161C117.246 114.735 114.393 112.895 111 111.631L110.301 113.505ZM118.083 118.535C120.162 120.735 121.756 123.337 122.864 126.353L124.741 125.663C123.545 122.407 121.811 119.569 119.538 117.161L118.083 118.535ZM123.508 125.052L110.74 128.988L111.329 130.9L124.097 126.964L123.508 125.052ZM111.977 129.611C111.137 127.229 109.598 125.217 107.411 123.576L106.211 125.176C108.119 126.607 109.396 128.307 110.092 130.277L111.977 129.611ZM107.411 123.576C105.153 121.883 102.337 121.072 99.0345 121.072V123.072C102.004 123.072 104.372 123.797 106.211 125.176L107.411 123.576ZM99.0345 121.072C95.6877 121.072 92.915 121.842 90.8291 123.496L92.0719 125.063C93.698 123.774 95.9813 123.072 99.0345 123.072V121.072ZM90.8158 123.507C88.7543 125.201 87.7625 127.586 87.7625 130.52H89.7625C89.7625 128.078 90.5627 126.303 92.0852 125.053L90.8158 123.507ZM87.7625 130.52C87.7625 132.879 88.5618 134.836 90.2209 136.269L91.5281 134.755C90.3712 133.756 89.7625 132.385 89.7625 130.52H87.7625ZM90.2376 136.283C91.8554 137.619 93.9869 138.6 96.5781 139.265L97.0749 137.327C94.6741 136.712 92.8376 135.837 91.5114 134.741L90.2376 136.283ZM96.584 139.266L105.416 141.474L105.901 139.534L97.069 137.326L96.584 139.266ZM105.421 141.475C111.027 142.846 115.31 145.285 118.347 148.747L119.85 147.429C116.487 143.595 111.81 140.978 105.896 139.533L105.421 141.475ZM118.347 148.747C121.401 152.229 122.899 156.064 122.899 160.28H124.899C124.899 155.536 123.196 151.243 119.85 147.429L118.347 148.747ZM122.899 160.28C122.899 164.079 121.982 167.376 120.176 170.206L121.861 171.282C123.895 168.096 124.899 164.417 124.899 160.28H122.899ZM120.181 170.198C118.378 172.961 115.752 175.149 112.251 176.746L113.082 178.566C116.877 176.835 119.819 174.415 121.856 171.29L120.181 170.198ZM112.251 176.746C108.766 178.336 104.5 179.152 99.4185 179.152V181.152C104.705 181.152 109.271 180.304 113.082 178.566L112.251 176.746ZM156.867 179L155.932 178.646L155.419 180H156.867V179ZM182.307 111.8V110.8H181.616L181.372 111.446L182.307 111.8ZM196.419 111.8L197.348 112.169L197.892 110.8H196.419V111.8ZM169.731 179V180H170.41L170.66 179.369L169.731 179ZM155.427 179L154.498 179.37L154.749 180H155.427V179ZM128.643 111.8V110.8H127.168L127.714 112.17L128.643 111.8ZM142.755 111.8L143.69 111.445L143.445 110.8H142.755V111.8ZM168.291 179V180H169.741L169.226 178.645L168.291 179ZM157.802 179.354L183.242 112.154L181.372 111.446L155.932 178.646L157.802 179.354ZM182.307 112.8H196.419V110.8H182.307V112.8ZM195.49 111.431L168.802 178.631L170.66 179.369L197.348 112.169L195.49 111.431ZM169.731 178H156.867V180H169.731V178ZM156.356 178.63L129.572 111.43L127.714 112.17L154.498 179.37L156.356 178.63ZM128.643 112.8H142.755V110.8H128.643V112.8ZM141.82 112.155L167.356 179.355L169.226 178.645L143.69 111.445L141.82 112.155ZM168.291 178H155.427V180H168.291V178ZM227.327 179H226.327V180H227.327V179ZM227.327 111.8V110.8H226.327V111.8H227.327ZM270.431 111.8H271.431V110.8H270.431V111.8ZM270.431 123.8V124.8H271.431V123.8H270.431ZM240.479 123.8V122.8H239.479V123.8H240.479ZM240.479 139.928H239.479V140.928H240.479V139.928ZM265.439 139.928H266.439V138.928H265.439V139.928ZM265.439 151.928V152.928H266.439V151.928H265.439ZM240.479 151.928V150.928H239.479V151.928H240.479ZM240.479 179V180H241.479V179H240.479ZM228.327 179V111.8H226.327V179H228.327ZM227.327 112.8H270.431V110.8H227.327V112.8ZM269.431 111.8V123.8H271.431V111.8H269.431ZM270.431 122.8H240.479V124.8H270.431V122.8ZM239.479 123.8V139.928H241.479V123.8H239.479ZM240.479 140.928H265.439V138.928H240.479V140.928ZM264.439 139.928V151.928H266.439V139.928H264.439ZM265.439 150.928H240.479V152.928H265.439V150.928ZM239.479 151.928V179H241.479V151.928H239.479ZM240.479 178H227.327V180H240.479V178ZM278.66 179H277.66V180H278.66V179ZM278.66 111.8V110.8H277.66V111.8H278.66ZM291.332 111.8H292.332V110.8H291.332V111.8ZM291.332 179V180H292.332V179H291.332ZM279.66 179V111.8H277.66V179H279.66ZM278.66 112.8H291.332V110.8H278.66V112.8ZM290.332 111.8V179H292.332V111.8H290.332ZM291.332 178H278.66V180H291.332V178ZM311.789 176.984L311.289 177.85L311.298 177.855L311.307 177.86L311.789 176.984ZM302.861 168.056L301.988 168.544L301.994 168.555L302.861 168.056ZM302.861 141.944L303.733 142.432L303.733 142.432L302.861 141.944ZM311.693 133.112L312.181 133.985L312.192 133.978L311.693 133.112ZM337.709 133.112L337.209 133.978L337.22 133.985L337.709 133.112ZM346.541 141.944L345.668 142.432L345.668 142.432L346.541 141.944ZM346.541 168.056L345.668 167.568L345.668 167.568L346.541 168.056ZM337.709 176.984L338.203 177.853L338.208 177.85L337.709 176.984ZM331.085 166.712L331.625 167.553L331.625 167.553L331.085 166.712ZM335.213 162.008L334.318 161.561L334.312 161.572L335.213 162.008ZM335.213 148.088L334.318 148.535L334.324 148.547L335.213 148.088ZM330.893 143.288L330.352 144.129L330.358 144.133L330.365 144.138L330.893 143.288ZM318.413 143.288L317.885 142.438L317.878 142.443L317.872 142.447L318.413 143.288ZM314.189 148.088L315.077 148.547L315.083 148.535L314.189 148.088ZM314.189 162.008L313.294 162.455L313.3 162.467L314.189 162.008ZM318.509 166.712L317.981 167.562L317.981 167.562L318.509 166.712ZM324.845 179.152C320.13 179.152 315.947 178.13 312.27 176.108L311.307 177.86C315.31 180.062 319.831 181.152 324.845 181.152V179.152ZM312.288 176.118C308.664 174.029 305.815 171.18 303.727 167.557L301.994 168.555C304.258 172.484 307.361 175.587 311.289 177.85L312.288 176.118ZM303.733 167.568C301.716 163.961 300.693 159.781 300.693 155H298.693C298.693 160.075 299.781 164.599 301.988 168.544L303.733 167.568ZM300.693 155C300.693 150.219 301.716 146.039 303.733 142.432L301.988 141.456C299.781 145.401 298.693 149.925 298.693 155H300.693ZM303.733 142.432C305.755 138.817 308.566 136.007 312.181 133.985L311.204 132.239C307.267 134.441 304.19 137.519 301.988 141.456L303.733 142.432ZM312.192 133.978C315.799 131.9 319.943 130.848 324.653 130.848V128.848C319.634 128.848 315.138 129.972 311.193 132.246L312.192 133.978ZM324.653 130.848C329.429 130.848 333.604 131.901 337.209 133.978L338.208 132.246C334.261 129.971 329.732 128.848 324.653 128.848V130.848ZM337.22 133.985C340.835 136.007 343.646 138.817 345.668 142.432L347.413 141.456C345.211 137.519 342.134 134.441 338.197 132.239L337.22 133.985ZM345.668 142.432C347.685 146.039 348.708 150.219 348.708 155H350.708C350.708 149.925 349.62 145.401 347.413 141.456L345.668 142.432ZM348.708 155C348.708 159.781 347.685 163.961 345.668 167.568L347.413 168.544C349.62 164.599 350.708 160.075 350.708 155H348.708ZM345.668 167.568C343.644 171.185 340.83 174.031 337.209 176.118L338.208 177.85C342.139 175.585 345.213 172.479 347.413 168.544L345.668 167.568ZM337.214 176.115C333.673 178.13 329.56 179.152 324.845 179.152V181.152C329.857 181.152 334.32 180.062 338.203 177.853L337.214 176.115ZM324.845 169.44C327.382 169.44 329.654 168.82 331.625 167.553L330.544 165.871C328.931 166.908 327.043 167.44 324.845 167.44V169.44ZM331.625 167.553C333.578 166.298 335.075 164.587 336.113 162.444L334.312 161.572C333.43 163.397 332.175 164.822 330.544 165.871L331.625 167.553ZM336.107 162.455C337.21 160.249 337.749 157.756 337.749 155H335.749C335.749 157.492 335.263 159.671 334.318 161.561L336.107 162.455ZM337.749 155C337.749 152.244 337.21 149.778 336.101 147.629L334.324 148.547C335.263 150.366 335.749 152.508 335.749 155H337.749ZM336.107 147.641C335.004 145.436 333.441 143.693 331.42 142.438L330.365 144.138C332.056 145.187 333.373 146.644 334.318 148.535L336.107 147.641ZM331.433 142.447C329.462 141.18 327.19 140.56 324.653 140.56V142.56C326.851 142.56 328.739 143.092 330.352 144.129L331.433 142.447ZM324.653 140.56C322.173 140.56 319.908 141.183 317.885 142.438L318.94 144.138C320.629 143.089 322.524 142.56 324.653 142.56V140.56ZM317.872 142.447C315.917 143.703 314.392 145.445 313.294 147.641L315.083 148.535C316.033 146.635 317.324 145.177 318.953 144.129L317.872 142.447ZM313.3 147.629C312.191 149.778 311.653 152.244 311.653 155H313.653C313.653 152.508 314.138 150.366 315.077 148.547L313.3 147.629ZM311.653 155C311.653 157.756 312.191 160.249 313.294 162.455L315.083 161.561C314.138 159.671 313.653 157.492 313.653 155H311.653ZM313.3 162.467C314.405 164.607 315.968 166.312 317.981 167.562L319.036 165.862C317.337 164.808 316.02 163.377 315.077 161.549L313.3 162.467ZM317.981 167.562C320.009 168.82 322.306 169.44 324.845 169.44V167.44C322.647 167.44 320.72 166.908 319.036 165.862L317.981 167.562ZM400.931 179L399.982 178.685L399.546 180H400.931V179ZM416.867 131V130H416.146L415.918 130.685L416.867 131ZM429.731 131L430.678 131.322L431.127 130H429.731V131ZM413.411 179V180H414.127L414.358 179.322L413.411 179ZM369.059 179L368.107 178.695L367.689 180H369.059V179ZM384.419 131V130H383.689L383.467 130.695L384.419 131ZM395.459 131L396.413 131.301L396.824 130H395.459V131ZM380.291 179V180H381.024L381.245 179.301L380.291 179ZM367.811 179L366.864 179.322L367.095 180H367.811V179ZM351.491 131V130H350.095L350.544 131.322L351.491 131ZM364.355 131L365.308 130.697L365.087 130H364.355V131ZM379.619 179V180H380.987L380.572 178.697L379.619 179ZM400.931 179L399.977 179.298L400.196 180H400.931V179ZM385.955 131V130H384.596L385.001 131.298L385.955 131ZM396.899 131L397.852 130.697L397.631 130H396.899V131ZM412.163 179V180H413.531L413.116 178.697L412.163 179ZM401.88 179.315L417.816 131.315L415.918 130.685L399.982 178.685L401.88 179.315ZM416.867 132H429.731V130H416.867V132ZM428.784 130.678L412.464 178.678L414.358 179.322L430.678 131.322L428.784 130.678ZM413.411 178H400.931V180H413.411V178ZM370.012 179.305L385.372 131.305L383.467 130.695L368.107 178.695L370.012 179.305ZM384.419 132H395.459V130H384.419V132ZM394.506 130.699L379.338 178.699L381.245 179.301L396.413 131.301L394.506 130.699ZM380.291 178H369.059V180H380.291V178ZM368.758 178.678L352.438 130.678L350.544 131.322L366.864 179.322L368.758 178.678ZM351.491 132H364.355V130H351.491V132ZM363.402 131.303L378.666 179.303L380.572 178.697L365.308 130.697L363.402 131.303ZM379.619 178H367.811V180H379.619V178ZM401.886 178.702L386.91 130.702L385.001 131.298L399.977 179.298L401.886 178.702ZM385.955 132H396.899V130H385.955V132ZM395.946 131.303L411.21 179.303L413.116 178.697L397.852 130.697L395.946 131.303ZM412.163 178H400.931V180H412.163V178Z" fill="white" mask="url(#path-3-outside-1_6_2)"/>
</svg>
